# xmcd CD database file
#
# Track frame offsets:
#	150
#	20545
#	42675
#	63888
#	77122
#	97772
#	119086
#	134565
#	151635
#	151965
#
# Disc length: 2326 seconds
#
# Revision: 3
# Processed by: cddbd v1.5.1PL2 Copyright (c) Steve Scherf et al.
# Submitted via: CDex 1.51
#
DISCID=7b09140a
DTITLE=Various Artist - ☆地方発☆アイドル大集合!!
DYEAR=2005
DGENRE=JPop
TTITLE0=タッチ - 君がそばにいた(北海道苫小牧)
TTITLE1=PLIME - 6 Colors☆Like A Rainbow(東京八王子)
TTITLE2=C-Zone - We Are C-Zone(千葉)
TTITLE3=Negicco - 恋するねぎっ娘(新潟)
TTITLE4=Cross - Love Session(福井)
TTITLE5=Breeze - N・A・T・S・U☆K・O・I(名古屋)
TTITLE6=ダンシングBanana - 真実の宝石(大阪)
TTITLE7=Bachicco! - Pure Snow Love(岡山・香川)
TTITLE8=Untitled - Untitled
TTITLE9=岡田彩菜 - 1 Or 8.Com
EXTD=YEAR: 2005
EXTT0=
EXTT1=
EXTT2=
EXTT3=
EXTT4=
EXTT5=
EXTT6=
EXTT7=
EXTT8=
EXTT9=
PLAYORDER=
